<svg id="Layer_5" enable-background="new 0 0 64 64" height="512" viewBox="0 0 64 64" width="512" xmlns="http://www.w3.org/2000/svg"><g><path d="m27 34h2v2h-2z"/><path d="m31 34h2v2h-2z"/><path d="m35 34h2v2h-2z"/><path d="m39 34h2v2h-2z"/><path d="m23 34h2v2h-2z"/><path d="m63 22v-2.181l-5.577-14.872c-.437-1.165-1.566-1.947-2.809-1.947h-12.848l-.394-.657c-.497-.828-1.406-1.343-2.372-1.343s-1.875.515-2.372 1.343l-.394.657h-7.234v-2h-8v2h-11.614c-1.244 0-2.373.782-2.81 1.947l-5.576 14.872v2.181c0 1.302.839 2.402 2 2.816v14.369c-1.161.413-2 1.513-2 2.815v2c0 1.302.839 2.402 2 2.816v12.184h24.101c.465 2.279 2.484 4 4.899 4s4.434-1.721 4.899-4h24.101v-12.184c1.161-.414 2-1.514 2-2.816v-2c0-1.302-.839-2.402-2-2.816v-14.368c1.161-.414 2-1.514 2-2.816zm-8 17v-14h4v14zm-23 8c-9.374 0-17-7.626-17-17 0-3.524 1.108-6.961 3.139-9.824l1.14 1.9c-1.487 2.38-2.279 5.103-2.279 7.924 0 8.271 6.729 15 15 15s15-6.729 15-15c0-3.797-1.425-7.385-4-10.168v-2.785c3.786 3.214 6 7.926 6 12.953 0 9.374-7.626 17-17 17zm-29-26h8v1c0 .551-.449 1-1 1h-6c-.551 0-1-.449-1-1zm11.359 2h-.359c-.551 0-1-.449-1-1v-1h2.293c-.35.649-.662 1.316-.934 2zm-5.359 2v14h-4v-14zm2-.184c.374-.133.711-.335 1-.596.458.413 1.04.68 1.686.749-.449 1.629-.686 3.32-.686 5.031 0 3.255.825 6.319 2.273 9h-4.273zm19.434-9.816h-1.434v-1.697c.708-.129 1.402-.212 2.084-.251.278 1.116 1.282 1.948 2.482 1.948h1.434v14h8v-5.907c1.297 2.054 2 4.43 2 6.907 0 7.168-5.832 13-13 13s-13-5.832-13-13c0-2.093.505-4.124 1.458-5.96l2.17 3.617c.497.828 1.406 1.343 2.372 1.343s1.875-.515 2.372-1.343l5.263-8.771c.239-.399.365-.855.365-1.32 0-1.415-1.151-2.566-2.566-2.566zm20.566 7c0 .551-.449 1-1 1h-.339c-.271-.684-.58-1.353-.928-2h2.267zm0 8c0-1.724-.24-3.412-.685-5.032.645-.069 1.227-.336 1.685-.748.289.26.626.463 1 .596v14.184h-4.273c1.448-2.681 2.273-5.745 2.273-9zm9-7h-6c-.551 0-1-.449-1-1v-1h8v1c0 .551-.449 1-1 1zm-4.45-17.351 5.007 13.351h-7.776l-3.5-14h5.333c.414 0 .791.261.936.649zm-8.331-.649 3.5 14h-3.23c-1.065-1.498-2.354-2.847-3.837-4h.782c1.415 0 2.566-1.151 2.566-2.566 0-.464-.126-.921-.366-1.32l-3.668-6.114zm-8.876-1.628c.275-.459 1.039-.459 1.314 0l5.262 8.77c.053.088.081.189.081.292 0 .312-.254.566-.566.566h-3.434v14h-4v-14h-3.434c-.312 0-.566-.254-.566-.566 0-.103.028-.203.081-.291zm-3.309 1.628-3.61 6.017c-.799.026-1.609.102-2.423.235v-6.252zm-12.034-2h4v14h3.434c.312 0 .566.254.566.566 0 .103-.028.203-.081.291l-5.262 8.771c-.275.459-1.039.459-1.314 0l-5.262-8.77c-.053-.088-.081-.189-.081-.292 0-.312.254-.566.566-.566h3.434zm-2 11.517c-.212.152-.427.313-.644.483h-.79c-1.415 0-2.566 1.151-2.566 2.566 0 .234.033.466.096.69-.194.246-.392.489-.573.743h-3.242l3.5-14h4.219zm-12.551-8.868c.146-.388.523-.649.937-.649h5.333l-3.5 14h-7.776zm-5.449 36.351c0-.551.449-1 1-1h12.537c1.081 1.515 2.376 2.86 3.844 4h-16.381c-.551 0-1-.449-1-1zm2 5h18.566c1.091.543 2.238.983 3.434 1.31v8.69h-22zm27 14c-1.654 0-3-1.346-3-3v-9.261c.98.157 1.977.261 3 .261s2.02-.104 3-.261v9.261c0 1.654-1.346 3-3 3zm5-4v-8.69c1.196-.327 2.344-.767 3.434-1.31h18.566v10zm24-13c0 .551-.449 1-1 1h-16.381c1.468-1.14 2.764-2.485 3.844-4h12.537c.551 0 1 .449 1 1z"/></g></svg>