<?xml version="1.0" encoding="iso-8859-1"?>
<!-- Generator: Adobe Illustrator 19.0.0, SVG Export Plug-In . SVG Version: 6.00 Build 0)  -->
<svg version="1.1" id="Capa_1" xmlns="http://www.w3.org/2000/svg" xmlns:xlink="http://www.w3.org/1999/xlink" x="0px" y="0px"
	 viewBox="0 0 503.659 503.659" style="enable-background:new 0 0 503.659 503.659;" xml:space="preserve">
<g>
	<g>
		<path d="M186.683,262.759h-56c-5.5,0-10,4.5-10,10v92c0,5.5,4.5,10,10,10h56c5.5,0,10-4.5,10-10v-92
			C196.683,267.259,192.183,262.759,186.683,262.759z M176.683,355.759h-36v-73h36V355.759z"/>
	</g>
</g>
<g>
	<g>
		<path d="M70.683,242.759h-56c-5.5,0-10,4.5-10,10v113c0,5.5,4.5,10,10,10h56c5.5,0,10-4.5,10-10v-113
			C80.683,247.259,76.183,242.759,70.683,242.759z M61.683,355.759h-37v-93h37V355.759z"/>
	</g>
</g>
<g>
	<g>
		<path d="M419.583,13.159c-15.7-16.8-42.2-17.6-59-1.9c-11.3,10.6-15.8,26.5-11.7,41.4l-45.4,32.1c-16.2-16.4-42.7-16.6-59.1-0.4
			c-11.6,11.5-15.5,28.6-9.9,44l-41.8,35.2c-13.2-18.9-39.2-23.6-58.2-10.4c-7.2,5-12.6,12.2-15.5,20.4l-34.7-14.1
			c-3.9-22.8-25.4-38.1-48.2-34.2c-22.8,3.9-38.1,25.5-34.2,48.3c3.9,22.8,25.4,38.1,48.2,34.2c15-2.5,27.4-13,32.5-27.3l34.7,14.1
			c3.9,22.8,25.4,38.1,48.2,34.2c20.1-3.4,34.8-20.8,34.8-41.2c0-1.3-0.1-2.7-0.2-4l45.6-38.5c17.1,15.5,43.5,14.3,59-2.8
			c9.9-10.9,13.3-26.2,9.1-40.2l44.9-31.8c15.8,16.8,42.2,17.6,59,1.9C434.483,56.358,435.283,29.959,419.583,13.159z
			 M43.083,188.359c-12,0-21.8-9.8-21.8-21.8s9.7-21.8,21.8-21.8c12,0,21.8,9.8,21.8,21.8S55.083,188.359,43.083,188.359z
			 M158.383,209.359c-12,0-21.8-9.8-21.8-21.8s9.8-21.8,21.8-21.8s21.8,9.8,21.8,21.8S170.483,209.359,158.383,209.359z
			 M273.783,135.859c-12,0-21.8-9.8-21.8-21.8c0-12,9.8-21.7,21.8-21.8c12,0,21.8,9.8,21.8,21.8S285.783,135.859,273.783,135.859z
			 M389.183,63.459c-12,0-21.8-9.8-21.8-21.8s9.7-21.8,21.8-21.8c12,0,21.8,9.8,21.8,21.8S401.183,63.459,389.183,63.459z"/>
	</g>
</g>
<g>
	<g>
		<path d="M427.683,252.259v-125.3c-0.2-5.6-4.7-10.2-10.4-10.2h-56.3c-5.6,0.1-10.2,4.6-10.3,10.2v113.5c-13.6,1.9-26.7,6-39,12
			v-53.3c0-5.5-4.2-10.4-9.7-10.4h-56.3c-5.5,0-9.9,4.9-9.9,10.4v166.3c0.1,2.1,0.8,4.2,2,5.9c0,72.9,59.3,132.3,132.2,132.3
			s132.4-59.3,132.4-132.3C502.283,320.658,473.283,274.459,427.683,252.259z M370.683,136.759h37v107.8c-12-3.5-24.5-5.3-37-5.4
			V136.759z M255.683,208.759h36v55.8c-14,10.7-27,24.4-36,40.2V208.759z M369.883,483.658c-62,0-112.3-50.3-112.3-112.3
			s50.3-112.3,112.3-112.3s112.3,50.3,112.3,112.3C482.083,433.358,431.783,483.559,369.883,483.658z"/>
	</g>
</g>
<g>
	<g>
		<path d="M443.683,359.759h-17.6c-4.1-12-15-19.5-27.8-19.5s-23.7,7.5-27.8,19.5h-68.2c-5.5,0-10,4.5-10,10s4.5,10,10,10h68.2
			c4.1,11,15,19.5,27.8,19.5c12.4-0.2,23.4-7.9,27.8-19.5h17.6c5.5,0,10-4.5,10-10S449.183,359.759,443.683,359.759z
			 M398.283,378.959c-5.3,0-9.5-4.3-9.5-9.5s4.3-9.5,9.5-9.5s9.5,4.3,9.5,9.5C407.783,374.658,403.583,378.959,398.283,378.959z"/>
	</g>
</g>
<g>
	<g>
		<path d="M443.683,409.759h-68.2c-4.1-11-15-19.5-27.8-19.5s-23.7,8.5-27.8,19.5h-17.6c-5.5,0-10,4.5-10,10s4.5,10,10,10h17.6
			c4.1,12,15,19.5,27.8,19.5s23.7-7.5,27.8-19.5h68.2c5.5,0,10-4.5,10-10S449.183,409.759,443.683,409.759z M347.683,429.759
			c-5.3,0-9.5-4.3-9.5-9.5c0-5.3,4.3-9.5,9.5-9.5c5.3,0,9.5,4.3,9.5,9.5S352.883,429.759,347.683,429.759z"/>
	</g>
</g>
<g>
	<g>
		<path d="M443.683,310.759h-68.2c-4.1-12-15-19.5-27.8-19.5s-23.7,7.5-27.8,19.5h-17.6c-5.5,0-10,4.5-10,10s4.5,10,10,10h17.6
			c4.1,11,15,19.5,27.8,19.5s23.7-8.5,27.8-19.5h68.2c5.5,0,10-4.5,10-10S449.183,310.759,443.683,310.759z M347.683,329.858
			c-5.3,0-9.5-4.3-9.5-9.5c0-5.3,4.3-9.5,9.5-9.5c5.3,0,9.5,4.3,9.5,9.5C357.183,325.658,352.883,329.858,347.683,329.858z"/>
	</g>
</g>
<g>
</g>
<g>
</g>
<g>
</g>
<g>
</g>
<g>
</g>
<g>
</g>
<g>
</g>
<g>
</g>
<g>
</g>
<g>
</g>
<g>
</g>
<g>
</g>
<g>
</g>
<g>
</g>
<g>
</g>
</svg>
